Coordinates
version=1
nRows=9
nColumns=24
inDegrees=yes

Units are S.I. units (second, meters, Newtons, ...)
Angles are in degrees.

endheader
time	pelvis_tilt	pelvis_list	pelvis_rotation	pelvis_tx	pelvis_ty	pelvis_tz	hip_flexion_r	hip_adduction_r	hip_rotation_r	knee_angle_r	ankle_angle_r	subtalar_angle_r	mtp_angle_r	hip_flexion_l	hip_adduction_l	hip_rotation_l	knee_angle_l	ankle_angle_l	subtalar_angle_l	mtp_angle_l	lumbar_extension	lumbar_bending	lumbar_rotation
      0.67800000	     -5.29033856	      9.80084351	      3.20255973	      0.00615706	      0.95545518	      0.25985239	     35.00801927	    -11.87416053	     -2.63945218	      0.78806244	      4.47378395	     -1.08758388	      0.71449380	    -21.54235839	     11.50207253	     10.94315986	      4.19742574	      9.08949104	     -4.54921553	      0.66167508	     -7.27652909	     -1.96942834	    -13.70189486
      0.68216667	     -5.31459215	      9.67713883	      3.22131487	      0.01244813	      0.95469652	      0.26035142	     35.01030068	    -11.71808716	     -2.09888404	      0.37382549	      4.11926824	     -1.75605430	      1.64561882	    -21.75968957	     11.32587207	     10.68769576	      3.95424582	      9.07145067	     -4.18170441	      1.28239042	     -7.20442768	     -1.79208582	    -13.66344692
      0.68633333	     -5.48062086	      9.61975680	      3.28682440	      0.01869420	      0.95378575	      0.26079553	     35.23193910	    -11.64260688	     -1.58943032	     -0.21444836	      3.83075639	     -2.29548873	      1.80413518	    -21.81564426	     11.21863818	     10.62418125	      3.67271156	      8.91883721	     -4.14340730	      1.42016174	     -6.97295136	     -1.72561223	    -13.65594629
      0.69050000	     -5.56592732	      9.49094979	      3.30589345	      0.02504740	      0.95300415	      0.26133678	     35.33081016	    -11.47005800	     -1.05310636	     -0.76143921	      3.42611721	     -2.98296205	      1.97106862	    -21.95242825	     11.04304704	     10.44101073	      3.40090831	      8.79210605	     -3.98176717	      1.60938825	     -6.81464157	     -1.55797294	    -13.60740090
      0.69466667	     -5.67063729	      9.35028957	      3.32163925	      0.03144114	      0.95222920	      0.26189101	     35.46128213	    -11.28034447	     -0.54187226	     -1.35589946	      2.96897797	     -3.64632899	      2.13513222	    -22.05460504	     10.86039940	     10.24729689	      3.10332601	      8.66098914	     -3.81232435	      1.83629109	     -6.63716953	     -1.37920477	    -13.54610959
      0.69883333	     -5.78234018	      9.19356305	      3.32647074	      0.03788288	      0.95147341	      0.26248928	     35.60566630	    -11.06347893	     -0.04460580	     -1.98340345	      2.44147727	     -4.32761316	      2.29337030	    -22.13852048	     10.66500547	     10.03878930	      2.79040631	      8.50713295	     -3.65668781	      2.09492997	     -6.44295355	     -1.18161441	    -13.47760099
      0.70300000	     -5.89959430	      9.02168063	      3.32316274	      0.04436593	      0.95074063	      0.26312319	     35.75935628	    -10.82208767	      0.43801139	     -2.63266043	      1.83910948	     -5.03048177	      2.45284142	    -22.20352955	     10.45743782	      9.81927872	      2.45591749	      8.32994652	     -3.51853102	      2.39567643	     -6.23814952	     -0.96662939	    -13.40319333
      0.70716667	     -6.02613327	      8.83492575	      3.31210690	      0.05088870	      0.95002729	      0.26378320	     35.93139813	    -10.55748434	      0.89479415	     -3.31130158	      1.17146409	     -5.73059256	      2.61108913	    -22.24934093	     10.23854260	      9.59923841	      2.10900205	      8.12635864	     -3.39842054	      2.73040912	     -6.02098347	     -0.73645149	    -13.32547859
      0.71133333	     -6.15818173	      8.63453939	      3.29375809	      0.05745353	      0.94934438	      0.26446630	     36.11496850	    -10.27289518	      1.32285508	     -4.00987134	      0.43894926	     -6.43695700	      2.77745270	    -22.27506619	     10.00964289	      9.36688997	      1.73825474	      7.89595092	     -3.29759925	      3.11681236	     -5.79096128	     -0.48676675	    -13.23953968
